Coordinates
version=1
nRows=32
nColumns=11
inDegrees=yes

Units are S.I. units (second, meters, Newtons, ...)
If the header above contains a line with 'inDegrees', this indicates whether rotational values are in degrees (yes) or radians (no).

endheader
time	pelvis_tilt	pelvis_tx	pelvis_ty	hip_flexion_l	hip_flexion_r	knee_angle_l	knee_angle_r	ankle_angle_l	ankle_angle_r	lumbar_extension
      9.49000000	     40.52132813	     -0.06857412	      1.08566453	     27.70421050	     30.11264386	    -59.76680008	    -62.08631552	    -40.35918849	    -44.24531952	    -33.75941100
      9.50000000	     40.49562184	     -0.06857927	      1.08562131	     27.76340182	     30.14627036	    -59.96540924	    -62.08881433	    -40.30954433	    -44.26086563	    -33.74090924
      9.51000000	     40.50092158	     -0.06860348	      1.08564069	     27.77750730	     30.13905473	    -60.15188717	    -62.08090157	    -40.32036537	    -44.26200250	    -33.74887894
      9.52000000	     40.50037012	     -0.06863132	      1.08561907	     27.79901622	     30.14592312	    -60.30534284	    -62.08152544	    -40.33913824	    -44.26524160	    -33.75904428
      9.53000000	     40.43062302	     -0.06861947	      1.08558117	     27.88724707	     30.21566938	    -60.43717639	    -62.06510345	    -40.44887208	    -44.29053418	    -33.68833119
      9.54000000	     40.43462532	     -0.06864950	      1.08559656	     27.90054277	     30.20985953	    -60.58776507	    -62.05975532	    -40.45315961	    -44.29063301	    -33.69432886
      9.55000000	     40.43592265	     -0.06864978	      1.08561014	     27.91613994	     30.20714277	    -60.72379754	    -62.05441500	    -40.46052824	    -44.29431855	    -33.69992759
      9.56000000	     40.43695600	     -0.06865406	      1.08559131	     27.92349395	     30.20809660	    -60.82237526	    -62.05619242	    -40.46344949	    -44.29592905	    -33.70390075
      9.57000000	     40.43648891	     -0.06864255	      1.08559631	     27.92343912	     30.21136030	    -60.90152390	    -62.05833798	    -40.46012693	    -44.29764514	    -33.70429168
      9.58000000	     40.39456728	     -0.06864289	      1.08558188	     27.97022583	     30.25335013	    -60.96866514	    -62.04721419	    -40.47622961	    -44.30180296	    -33.67656037
      9.59000000	     40.39475108	     -0.06865956	      1.08557514	     27.97160886	     30.25379521	    -61.02099457	    -62.04369976	    -40.48481721	    -44.30538636	    -33.67091079
      9.60000000	     40.37786883	     -0.06864592	      1.08556604	     27.99330165	     30.26999423	    -61.06764608	    -62.04046144	    -40.56847007	    -44.31501895	    -33.65274642
      9.61000000	     40.37491218	     -0.06865346	      1.08556412	     27.98999448	     30.26905411	    -61.08243059	    -62.03339287	    -40.57163176	    -44.31492519	    -33.65162567
      9.62000000	     40.37950652	     -0.06864758	      1.08555835	     27.96097121	     30.26527587	    -61.04434232	    -62.03634218	    -40.73302308	    -44.32195728	    -33.64994055
      9.63000000	     40.37950249	     -0.06861520	      1.08553589	     27.94773922	     30.27324648	    -61.02975107	    -62.05336717	    -40.73052930	    -44.32134505	    -33.65160731
      9.64000000	     40.41181756	     -0.06862632	      1.08559686	     27.91231584	     30.23482616	    -61.05630220	    -62.05148117	    -40.64843747	    -44.30580989	    -33.69372510
      9.65000000	     40.41044535	     -0.06861864	      1.08555332	     27.90379521	     30.24458583	    -61.01759162	    -62.06758403	    -40.64811159	    -44.30582511	    -33.69124391
      9.66000000	     40.39469465	     -0.06860555	      1.08557334	     27.88486382	     30.25371280	    -60.93449734	    -62.05801982	    -40.64684482	    -44.30388018	    -33.67375499
      9.67000000	     40.38967541	     -0.06856122	      1.08556513	     27.86703471	     30.25967455	    -60.84061882	    -62.06756799	    -40.65720678	    -44.30245043	    -33.66087504
      9.68000000	     40.39669790	     -0.06852795	      1.08557545	     27.85279497	     30.24395447	    -60.78717071	    -62.06023199	    -40.70648244	    -44.29823812	    -33.65415546
      9.69000000	     40.39164512	     -0.06850165	      1.08556064	     27.83846823	     30.25720779	    -60.68206176	    -62.08081642	    -40.70290702	    -44.29490653	    -33.65890393
      9.70000000	     40.39815415	     -0.06848419	      1.08559025	     27.80572409	     30.24423692	    -60.55909962	    -62.07919760	    -40.71325716	    -44.28422585	    -33.65291079
      9.71000000	     40.45337590	     -0.06846955	      1.08561558	     27.72646608	     30.18437868	    -60.45462631	    -62.08571040	    -40.75250857	    -44.26894780	    -33.71591235
      9.72000000	     40.44743610	     -0.06842735	      1.08560389	     27.71425219	     30.18930927	    -60.33163139	    -62.09223118	    -40.74540117	    -44.26768081	    -33.71110375
      9.73000000	     40.43745077	     -0.06839167	      1.08562540	     27.67128723	     30.20391004	    -60.13844823	    -62.10852492	    -40.73877070	    -44.26469752	    -33.69567451
      9.74000000	     40.43081260	     -0.06837947	      1.08559277	     27.64531911	     30.21380106	    -59.98069449	    -62.11841429	    -40.73529470	    -44.26133833	    -33.68888627
      9.75000000	     40.48616539	     -0.06834978	      1.08567388	     27.54128306	     30.13974214	    -59.80632240	    -62.10888678	    -40.71185208	    -44.24865677	    -33.73718802
      9.76000000	     40.48148887	     -0.06831487	      1.08563174	     27.52935275	     30.15773210	    -59.65058221	    -62.14153985	    -40.70957750	    -44.24485564	    -33.73475459
      9.77000000	     40.46903240	     -0.06832675	      1.08560847	     27.50867246	     30.17765116	    -59.45277621	    -62.14614485	    -40.70915715	    -44.22691042	    -33.72716840
      9.78000000	     40.47416358	     -0.06826984	      1.08562535	     27.46322134	     30.16798670	    -59.26205091	    -62.15549069	    -40.69575656	    -44.22890145	    -33.70724960
      9.79000000	     40.52688618	     -0.06825487	      1.08562156	     27.38066740	     30.11591836	    -59.08675021	    -62.17410594	    -40.66983398	    -44.21393229	    -33.76938903
      9.80000000	     40.54943744	     -0.06821740	      1.08571524	     27.29481476	     30.07759892	    -58.84100842	    -62.16374728	    -40.75336336	    -44.21106777	    -33.78602196
